<?xml version="1.0" encoding="UTF-8" standalone="no"?>
<!DOCTYPE svg PUBLIC "-//W3C//DTD SVG 20010904//EN"
              "http://www.w3.org/TR/2001/REC-SVG-20010904/DTD/svg10.dtd">

<svg xmlns="http://www.w3.org/2000/svg"
     width="6.4in" height="3.6in"
     viewBox="0 0 1920 1080">
  <path class="write"
        fill="none" stroke="black" stroke-width="1"
        d="M 650.02,472.56
           C 650.02,472.56 700.45,473.00 700.45,473.00
             711.61,473.00 721.46,472.86 730.02,472.56
             735.67,440.74 738.50,421.98 738.50,416.30
             738.50,415.07 737.86,413.92 736.59,412.84
             735.32,411.76 730.27,411.15 721.44,411.00
             721.44,411.00 720.80,410.19 720.80,410.19
             720.80,410.19 721.22,405.81 721.22,405.81
             721.22,405.81 722.28,405.00 722.28,405.00
             722.28,405.00 751.84,406.00 751.84,406.00
             758.55,406.00 765.79,405.67 773.56,405.00
             773.56,405.00 774.41,405.81 774.41,405.81
             774.41,405.81 773.98,410.19 773.98,410.19
             773.98,410.19 773.03,411.00 773.03,411.00
             767.31,411.29 763.53,411.59 761.69,411.88
             759.85,412.16 758.62,413.20 757.98,415.00
             757.35,416.80 755.69,424.23 753.00,437.28
             750.32,450.32 747.99,462.89 746.02,474.97
             746.02,474.97 738.92,517.62 738.92,517.62
             736.30,533.34 735.00,542.57 735.00,545.33
             735.00,546.60 735.72,547.61 737.17,548.36
             738.62,549.10 743.65,549.65 752.27,550.00
             752.27,550.00 752.91,550.81 752.91,550.81
             752.91,550.81 752.38,555.19 752.38,555.19
             752.38,555.19 751.42,556.00 751.42,556.00
             751.42,556.00 723.67,555.00 723.67,555.00
             716.25,555.00 708.38,555.33 700.03,556.00
             700.03,556.00 699.30,555.19 699.30,555.19
             699.30,555.19 699.72,550.81 699.72,550.81
             699.72,550.81 700.67,550.00 700.67,550.00
             704.27,549.93 708.65,549.29 713.80,548.09
             715.07,547.03 716.21,544.43 717.23,540.30
             718.27,536.15 720.12,526.65 722.81,511.78
             722.81,511.78 728.33,481.42 728.33,481.42
             728.33,481.42 686.38,481.00 686.38,481.00
             683.76,481.00 674.33,481.18 658.08,481.53
             658.08,481.53 648.33,481.75 648.33,481.75
             641.75,519.61 638.47,540.76 638.47,545.22
             638.47,546.50 639.19,547.53 640.64,548.31
             642.09,549.09 647.12,549.65 655.73,550.00
             655.73,550.00 656.38,550.81 656.38,550.81
             656.38,550.81 655.84,555.19 655.84,555.19
             655.84,555.19 654.89,556.00 654.89,556.00
             654.89,556.00 627.03,555.00 627.03,555.00
             619.69,555.00 611.84,555.33 603.50,556.00
             603.50,556.00 602.77,555.19 602.77,555.19
             602.77,555.19 603.08,550.81 603.08,550.81
             603.08,550.81 604.14,550.00 604.14,550.00
             610.21,549.65 614.08,549.28 615.73,548.89
             617.40,548.50 618.76,546.69 619.81,543.47
             620.88,540.25 622.93,530.18 625.97,513.27
             625.97,513.27 632.86,475.20 632.86,475.20
             632.86,475.20 639.11,438.22 639.11,438.22
             641.02,426.92 641.97,419.65 641.97,416.41
             641.97,414.96 641.33,413.77 640.06,412.84
             638.79,411.91 633.74,411.29 624.91,411.00
             624.91,411.00 624.17,410.19 624.17,410.19
             624.17,410.19 624.70,405.81 624.70,405.81
             624.70,405.81 625.66,405.00 625.66,405.00
             625.66,405.00 655.33,406.00 655.33,406.00
             661.96,406.00 669.20,405.67 677.05,405.00
             677.05,405.00 677.78,405.81 677.78,405.81
             677.78,405.81 677.47,410.19 677.47,410.19
             677.47,410.19 676.52,411.00 676.52,411.00
             669.59,411.22 665.33,411.71 663.73,412.47
             662.15,413.22 660.94,415.68 660.09,419.86
             660.09,419.86 656.28,438.66 656.28,438.66
             655.63,441.90 653.55,453.20 650.02,472.56 Z
           M 851.17,531.38
           C 851.17,531.38 852.33,533.77 852.33,533.77
             852.33,533.77 852.11,535.00 852.11,535.00
             834.73,550.34 820.01,558.00 807.94,558.00
             803.98,558.00 799.95,556.93 795.86,554.80
             791.77,552.66 788.71,549.60 786.69,545.61
             784.68,541.61 783.67,536.49 783.67,530.25
             783.67,521.49 785.13,512.16 788.06,502.25
             791.00,492.34 793.93,485.01 796.86,480.28
             799.80,475.55 804.19,471.11 810.05,466.94
             815.91,462.76 821.47,459.40 826.73,456.84
             832.00,454.28 837.11,453.00 842.06,453.00
             847.43,453.00 851.80,454.41 855.19,457.22
             858.58,460.02 860.28,463.92 860.28,468.91
             860.28,474.59 858.66,479.84 855.41,484.66
             852.16,489.47 846.22,494.02 837.61,498.31
             828.99,502.59 818.68,506.11 806.67,508.84
             806.67,508.84 801.69,510.00 801.69,510.00
             800.27,516.66 799.56,522.20 799.56,526.62
             799.56,532.87 800.97,537.82 803.80,541.50
             806.63,545.17 810.59,547.00 815.67,547.00
             825.20,547.00 836.64,541.67 850.00,531.00
             850.00,531.00 851.17,531.38 851.17,531.38 Z
           M 802.42,504.00
           C 809.84,502.71 816.88,500.68 823.56,497.92
             830.24,495.16 835.36,491.48 838.92,486.89
             842.49,482.29 844.28,477.60 844.28,472.83
             844.28,469.15 843.33,466.43 841.42,464.66
             839.52,462.89 837.22,462.00 834.53,462.00
             831.56,462.00 828.08,462.82 824.09,464.45
             820.10,466.09 816.57,469.09 813.50,473.45
             810.43,477.81 806.73,487.99 802.42,504.00 Z
           M 831.34,445.97 831.34,445.97 831.34,445.97 831.34,445.97
           M 811.75,566.55 811.75,566.55 811.75,566.55 811.75,566.55
           M 924.72,399.00
           C 924.72,399.00 927.47,401.02 927.47,401.02
             924.72,412.53 918.96,439.43 910.20,481.73
             903.91,511.95 900.34,529.82 899.50,535.33
             899.35,536.53 899.28,537.59 899.28,538.52
             899.28,539.91 899.63,541.01 900.34,541.81
             901.05,542.61 901.83,543.00 902.67,543.00
             905.00,543.00 910.05,540.07 917.83,534.22
             917.83,534.22 920.89,532.00 920.89,532.00
             920.89,532.00 921.95,532.30 921.95,532.30
             921.95,532.30 923.12,534.83 923.12,534.83
             923.12,534.83 922.81,536.00 922.81,536.00
             905.72,550.67 894.20,558.00 888.27,558.00
             886.15,558.00 884.54,557.20 883.44,555.61
             882.34,554.03 881.80,551.86 881.80,549.09
             881.80,546.14 882.25,542.38 883.17,537.83
             884.10,533.27 887.21,518.93 892.50,494.83
             897.52,471.86 901.02,454.72 903.00,443.41
             903.00,443.41 906.70,422.08 906.70,422.08
             907.19,419.23 907.44,417.03 907.44,415.47
             907.44,413.84 906.89,412.71 905.80,412.08
             904.70,411.43 902.78,411.11 900.03,411.11
             900.03,411.11 891.12,411.00 891.12,411.00
             891.12,411.00 890.28,410.23 890.28,410.23
             890.28,410.23 890.59,407.86 890.59,407.86
             890.59,407.86 891.44,407.00 891.44,407.00
             904.72,404.98 915.81,402.31 924.72,399.00 Z
           M 994.72,399.00
           C 994.72,399.00 997.47,401.02 997.47,401.02
             994.72,412.53 988.96,439.43 980.20,481.73
             973.91,511.95 970.34,529.82 969.50,535.33
             969.35,536.53 969.28,537.59 969.28,538.52
             969.28,539.91 969.63,541.01 970.34,541.81
             971.05,542.61 971.83,543.00 972.67,543.00
             975.00,543.00 980.05,540.07 987.83,534.22
             987.83,534.22 990.89,532.00 990.89,532.00
             990.89,532.00 991.95,532.30 991.95,532.30
             991.95,532.30 993.12,534.83 993.12,534.83
             993.12,534.83 992.81,536.00 992.81,536.00
             975.72,550.67 964.20,558.00 958.27,558.00
             956.15,558.00 954.54,557.20 953.44,555.61
             952.34,554.03 951.80,551.86 951.80,549.09
             951.80,546.14 952.25,542.38 953.17,537.83
             954.10,533.27 957.21,518.93 962.50,494.83
             967.52,471.86 971.02,454.72 973.00,443.41
             973.00,443.41 976.70,422.08 976.70,422.08
             977.19,419.23 977.44,417.03 977.44,415.47
             977.44,413.84 976.89,412.71 975.80,412.08
             974.70,411.43 972.78,411.11 970.03,411.11
             970.03,411.11 961.12,411.00 961.12,411.00
             961.12,411.00 960.28,410.23 960.28,410.23
             960.28,410.23 960.59,407.86 960.59,407.86
             960.59,407.86 961.44,407.00 961.44,407.00
             974.72,404.98 985.81,402.31 994.72,399.00 Z
           M 1017.88,525.45
           C 1017.88,512.08 1020.17,499.90 1024.77,488.91
             1029.36,477.92 1036.37,469.19 1045.80,462.72
             1055.22,456.24 1064.43,453.00 1073.41,453.00
             1081.59,453.00 1088.48,455.47 1094.06,460.41
             1099.64,465.34 1102.44,473.80 1102.44,485.77
             1102.44,497.53 1099.80,509.43 1094.53,521.47
             1089.27,533.50 1082.05,542.60 1072.86,548.77
             1063.68,554.92 1054.68,558.00 1045.84,558.00
             1039.99,558.00 1034.87,556.66 1030.48,553.97
             1026.11,551.27 1022.91,547.59 1020.89,542.94
             1018.88,538.28 1017.88,532.45 1017.88,525.45 Z
           M 1034.83,524.06
           C 1034.83,530.06 1035.43,534.82 1036.62,538.34
             1037.83,541.87 1039.95,544.69 1042.98,546.81
             1046.02,548.94 1049.77,550.00 1054.22,550.00
             1058.88,550.00 1062.98,548.78 1066.52,546.34
             1070.05,543.90 1073.40,539.37 1076.58,532.75
             1079.75,526.12 1082.07,518.72 1083.52,510.53
             1084.96,502.34 1085.69,494.78 1085.69,487.88
             1085.69,481.53 1084.94,476.45 1083.45,472.61
             1081.97,468.78 1079.79,465.89 1076.89,463.94
             1073.99,461.98 1070.50,461.00 1066.41,461.00
             1055.53,461.00 1047.55,467.43 1042.45,480.30
             1037.37,493.16 1034.83,507.75 1034.83,524.06 Z
           M 1068.53,445.97 1068.53,445.97 1068.53,445.97 1068.53,445.97
           M 1048.92,566.55 1048.92,566.55 1048.92,566.55 1048.92,566.55
           M 1238.73,404.00
           C 1240.50,412.21 1242.77,421.48 1245.52,431.81
             1245.52,431.81 1271.16,527.16 1271.16,527.16
             1273.21,522.53 1276.81,513.64 1281.97,500.48
             1281.97,500.48 1294.69,468.17 1294.69,468.17
             1307.05,436.73 1313.23,419.26 1313.23,415.75
             1313.23,414.62 1312.58,413.59 1311.27,412.64
             1309.96,411.68 1305.14,411.14 1296.80,411.00
             1296.80,411.00 1296.06,410.19 1296.06,410.19
             1296.06,410.19 1296.59,405.92 1296.59,405.92
             1296.59,405.92 1297.55,405.00 1297.55,405.00
             1304.25,405.67 1312.20,406.00 1321.39,406.00
             1328.80,406.00 1334.77,405.67 1339.30,405.00
             1339.30,405.00 1340.03,405.81 1340.03,405.81
             1340.03,405.81 1339.61,410.19 1339.61,410.19
             1339.61,410.19 1338.66,411.00 1338.66,411.00
             1333.36,411.15 1330.06,411.88 1328.75,413.19
             1327.45,414.50 1324.82,419.95 1320.86,429.55
             1320.86,429.55 1303.70,470.69 1303.70,470.69
             1303.70,470.69 1286.42,513.52 1286.42,513.52
             1279.00,531.92 1273.74,546.42 1270.64,557.00
             1270.64,557.00 1260.03,557.00 1260.03,557.00
             1260.03,557.00 1257.39,543.50 1257.39,543.50
             1256.74,540.25 1255.44,534.77 1253.47,527.05
             1253.47,527.05 1229.73,437.27 1229.73,437.27
             1227.12,442.08 1219.24,457.23 1206.11,482.73
             1206.11,482.73 1184.06,525.55 1184.06,525.55
             1177.35,538.58 1172.66,549.06 1169.97,557.00
             1169.97,557.00 1159.27,557.00 1159.27,557.00
             1159.05,545.92 1157.61,527.87 1154.92,502.86
             1154.92,502.86 1148.47,442.34 1148.47,442.34
             1147.12,429.55 1146.02,421.52 1145.17,418.25
             1144.33,414.98 1143.32,413.08 1142.16,412.55
             1140.99,412.02 1137.51,411.50 1131.72,411.00
             1131.72,411.00 1130.88,410.19 1130.88,410.19
             1130.88,410.19 1131.30,405.81 1131.30,405.81
             1131.30,405.81 1132.25,405.00 1132.25,405.00
             1138.11,405.67 1146.10,406.00 1156.20,406.00
             1166.52,406.00 1174.53,405.67 1180.25,405.00
             1180.25,405.00 1181.09,405.92 1181.09,405.92
             1181.09,405.92 1180.67,410.19 1180.67,410.19
             1180.67,410.19 1179.72,411.00 1179.72,411.00
             1172.58,411.15 1168.19,411.70 1166.53,412.66
             1164.88,413.62 1164.05,416.40 1164.05,421.02
             1164.05,427.48 1166.23,451.82 1170.61,494.02
             1170.61,494.02 1173.89,525.67 1173.89,525.67
             1173.89,525.67 1204.73,465.47 1204.73,465.47
             1218.58,438.50 1228.54,418.01 1234.61,404.00
             1234.61,404.00 1238.73,404.00 1238.73,404.00 Z
           M 1338.88,525.45
           C 1338.88,512.08 1341.17,499.90 1345.77,488.91
             1350.36,477.92 1357.37,469.19 1366.80,462.72
             1376.22,456.24 1385.43,453.00 1394.41,453.00
             1402.59,453.00 1409.48,455.47 1415.06,460.41
             1420.64,465.34 1423.44,473.80 1423.44,485.77
             1423.44,497.53 1420.80,509.43 1415.53,521.47
             1410.27,533.50 1403.05,542.60 1393.86,548.77
             1384.68,554.92 1375.68,558.00 1366.84,558.00
             1360.99,558.00 1355.87,556.66 1351.48,553.97
             1347.11,551.27 1343.91,547.59 1341.89,542.94
             1339.88,538.28 1338.88,532.45 1338.88,525.45 Z
           M 1355.83,524.06
           C 1355.83,530.06 1356.43,534.82 1357.62,538.34
             1358.83,541.87 1360.95,544.69 1363.98,546.81
             1367.02,548.94 1370.77,550.00 1375.22,550.00
             1379.88,550.00 1383.98,548.78 1387.52,546.34
             1391.05,543.90 1394.40,539.37 1397.58,532.75
             1400.75,526.12 1403.07,518.72 1404.52,510.53
             1405.96,502.34 1406.69,494.78 1406.69,487.88
             1406.69,481.53 1405.94,476.45 1404.45,472.61
             1402.97,468.78 1400.79,465.89 1397.89,463.94
             1394.99,461.98 1391.50,461.00 1387.41,461.00
             1376.53,461.00 1368.55,467.43 1363.45,480.30
             1358.37,493.16 1355.83,507.75 1355.83,524.06 Z
           M 1389.53,445.97 1389.53,445.97 1389.53,445.97 1389.53,445.97
           M 1369.92,566.55 1369.92,566.55 1369.92,566.55 1369.92,566.55
           M 1453.36,558.00
           C 1453.36,558.00 1451.45,556.53 1451.45,556.53
             1456.40,540.52 1460.53,523.79 1463.84,506.34
             1467.16,488.90 1468.83,477.69 1468.83,472.72
             1468.83,469.57 1467.98,468.00 1466.28,468.00
             1464.16,468.00 1458.30,471.34 1448.70,478.00
             1448.70,478.00 1447.42,477.70 1447.42,477.70
             1447.42,477.70 1446.36,475.50 1446.36,475.50
             1446.36,475.50 1446.69,474.00 1446.69,474.00
             1452.97,468.74 1459.59,463.93 1466.55,459.56
             1473.50,455.19 1478.61,453.00 1481.86,453.00
             1484.68,453.00 1486.09,454.78 1486.09,458.34
             1486.09,462.47 1483.52,476.20 1478.36,499.53
             1484.93,488.02 1491.36,478.29 1497.64,470.34
             1503.93,462.39 1508.47,457.51 1511.27,455.70
             1514.05,453.90 1516.83,453.00 1519.59,453.00
             1520.86,453.00 1522.13,453.28 1523.41,453.84
             1523.41,453.84 1523.83,455.02 1523.83,455.02
             1522.77,458.86 1521.56,466.31 1520.22,477.36
             1520.22,477.36 1517.25,478.00 1517.25,478.00
             1515.20,475.34 1512.83,474.00 1510.16,474.00
             1508.18,474.00 1505.79,474.81 1503.00,476.42
             1500.21,478.03 1496.76,481.28 1492.66,486.17
             1488.56,491.06 1485.02,496.59 1482.02,502.78
             1479.02,508.97 1476.59,515.73 1474.75,523.08
             1472.91,530.41 1470.59,541.05 1467.77,555.00
             1460.63,556.31 1455.83,557.31 1453.36,558.00 Z
           M 1637.31,399.00
           C 1637.31,399.00 1639.97,401.02 1639.97,401.02
             1636.64,415.01 1632.86,432.14 1628.62,452.41
             1628.62,452.41 1616.12,512.17 1616.12,512.17
             1614.14,522.34 1612.91,529.54 1612.42,533.78
             1612.27,535.12 1612.20,536.50 1612.20,537.91
             1612.20,541.30 1613.19,543.00 1615.17,543.00
             1617.86,543.00 1623.48,539.67 1632.03,533.00
             1632.03,533.00 1633.19,533.31 1633.19,533.31
             1633.19,533.31 1634.25,535.67 1634.25,535.67
             1634.25,535.67 1633.94,537.00 1633.94,537.00
             1627.36,542.78 1620.89,547.73 1614.53,551.84
             1608.18,555.95 1603.66,558.00 1600.97,558.00
             1599.49,558.00 1598.27,557.20 1597.31,555.59
             1596.36,553.99 1595.89,551.59 1595.89,548.38
             1595.89,545.74 1596.40,541.77 1597.42,536.45
             1598.44,531.14 1600.33,523.09 1603.09,512.30
             1603.09,512.30 1602.56,512.20 1602.56,512.20
             1594.94,524.83 1585.84,535.62 1575.28,544.58
             1564.72,553.53 1556.47,558.00 1550.55,558.00
             1548.42,558.00 1546.61,557.26 1545.12,555.78
             1543.64,554.30 1542.45,551.59 1541.53,547.66
             1540.61,543.71 1540.16,539.55 1540.16,535.19
             1540.16,529.20 1541.14,521.56 1543.12,512.27
             1545.10,502.96 1547.61,494.92 1550.64,488.12
             1553.68,481.32 1556.70,476.20 1559.70,472.75
             1562.70,469.30 1566.71,465.89 1571.72,462.52
             1576.74,459.13 1581.07,456.70 1584.70,455.22
             1588.35,453.74 1592.08,453.00 1595.89,453.00
             1599.98,453.00 1605.91,453.88 1613.69,455.64
             1613.69,455.64 1619.20,422.52 1619.20,422.52
             1619.77,419.73 1620.05,417.40 1620.05,415.50
             1620.05,413.89 1619.50,412.75 1618.41,412.09
             1617.31,411.44 1615.35,411.11 1612.53,411.11
             1612.53,411.11 1603.62,411.00 1603.62,411.00
             1603.62,411.00 1602.78,410.23 1602.78,410.23
             1602.78,410.23 1603.09,407.86 1603.09,407.86
             1603.09,407.86 1603.95,407.00 1603.95,407.00
             1617.16,404.98 1628.28,402.31 1637.31,399.00 Z
           M 1611.67,469.19
           C 1605.04,465.73 1598.19,464.00 1591.12,464.00
             1586.74,464.00 1583.19,464.47 1580.47,465.41
             1577.75,466.34 1575.70,467.49 1574.33,468.88
             1572.95,470.25 1571.15,473.23 1568.92,477.83
             1566.70,482.41 1564.53,488.04 1562.41,494.70
             1560.29,501.36 1558.65,507.92 1557.48,514.38
             1556.32,520.82 1555.73,527.05 1555.73,533.06
             1555.73,536.79 1556.12,539.38 1556.89,540.83
             1557.67,542.28 1558.88,543.00 1560.50,543.00
             1563.19,543.00 1567.00,541.48 1571.94,538.45
             1579.43,533.77 1586.13,527.50 1592.06,519.64
             1598.00,511.78 1602.45,503.40 1605.42,494.52
             1606.77,490.45 1608.85,482.01 1611.67,469.19 Z" />
</svg>
