<?xml version="1.0" encoding="UTF-8" standalone="no"?>
<!DOCTYPE svg PUBLIC "-//W3C//DTD SVG 20010904//EN"
              "http://www.w3.org/TR/2001/REC-SVG-20010904/DTD/svg10.dtd">

<svg xmlns="http://www.w3.org/2000/svg"
     width="6.4in" height="3.6in"
     viewBox="0 0 1920 1080">
  <path id="svg3"
        fill="none" stroke="black" stroke-width="1"
        d="M 1156.70,464.53
           C 1168.47,476.30 1174.36,492.58 1174.36,513.36
             1174.36,529.98 1167.78,545.57 1154.62,560.12
             1143.54,572.59 1127.26,583.68 1105.78,593.38
             1102.32,594.76 1101.29,594.07 1102.67,591.30
             1119.98,577.45 1132.80,564.98 1141.11,553.89
             1150.12,542.11 1154.62,527.21 1154.62,509.20
             1154.62,492.58 1149.43,479.07 1139.03,468.69
             1127.95,457.61 1115.48,452.06 1101.62,452.06
             1093.31,452.06 1087.77,452.41 1085.00,453.09
             1086.38,456.56 1087.08,460.72 1087.08,465.56
             1087.08,471.80 1084.66,480.81 1079.81,492.58
             1074.27,505.75 1068.38,517.87 1062.14,528.95
             1046.90,553.20 1035.82,568.43 1028.89,574.67
             1022.66,580.21 1017.47,582.98 1013.31,582.98
             1005.69,582.98 1000.14,572.94 996.69,552.84
             994.60,541.76 992.87,531.72 991.48,522.72
             991.48,505.40 1002.91,487.73 1025.78,469.72
             1048.63,451.71 1074.96,442.70 1104.75,442.70
             1124.83,442.70 1142.15,449.98 1156.70,464.53 Z
           M 1023.70,487.39
           C 1010.54,500.55 1003.95,515.44 1003.95,532.06
             1003.95,550.77 1008.46,560.12 1017.47,560.12
             1019.54,560.12 1021.62,559.09 1023.70,557.00
             1037.55,543.15 1051.06,524.10 1064.22,499.86
             1073.23,483.23 1077.73,468.34 1077.73,455.17
             1056.25,462.10 1038.24,472.84 1023.70,487.39 Z" />
</svg>
