<?xml version="1.0" encoding="UTF-8" standalone="no"?>
<!DOCTYPE svg PUBLIC "-//W3C//DTD SVG 20010904//EN"
              "http://www.w3.org/TR/2001/REC-SVG-20010904/DTD/svg10.dtd">

<svg xmlns="http://www.w3.org/2000/svg"
     width="6.4in" height="3.6in"
     viewBox="0 0 1920 1080">
  <path id="svg4"
        fill="none" stroke="black" stroke-width="1"
        d="M 1444.25,419.92
           C 1447.71,422.01 1448.40,424.43 1446.33,427.20
             1444.94,429.28 1443.55,431.36 1442.17,433.44
             1441.47,438.98 1440.43,446.60 1439.05,456.30
             1431.43,503.40 1424.85,536.65 1419.31,556.05
             1415.16,574.06 1408.92,589.99 1400.61,603.84
             1396.45,610.77 1393.68,612.50 1392.30,609.05
             1384.67,599.34 1378.44,593.10 1373.59,590.33
             1365.28,584.10 1355.23,577.52 1343.45,570.59
             1341.38,568.51 1341.73,567.47 1344.50,567.47
             1355.58,570.24 1365.28,572.67 1373.59,574.75
             1376.36,575.44 1379.83,575.78 1383.98,575.78
             1392.30,573.01 1400.26,553.27 1407.88,516.56
             1414.11,481.23 1418.62,450.75 1421.39,425.12
             1420.69,423.04 1418.61,421.66 1415.16,420.97
             1390.91,425.12 1369.77,428.93 1351.77,432.39
             1362.85,442.09 1367.00,448.67 1364.23,452.14
             1364.23,454.21 1358.35,469.45 1346.58,497.86
             1352.80,502.02 1357.66,505.82 1361.12,509.28
             1365.28,514.14 1367.70,517.95 1368.39,520.72
             1367.70,527.65 1363.55,529.38 1355.92,525.91
             1348.99,523.14 1343.11,520.37 1338.27,517.59
             1327.87,538.38 1314.36,556.39 1297.73,571.62
             1283.88,585.48 1267.95,597.95 1249.94,609.05
             1247.86,609.73 1247.17,608.69 1247.86,605.92
             1279.72,578.21 1304.66,545.66 1322.67,508.25
             1313.67,502.71 1305.02,494.74 1296.70,484.34
             1296.00,482.27 1296.70,481.58 1298.78,482.27
             1311.94,487.81 1321.98,491.27 1328.91,492.66
             1334.45,480.89 1339.30,464.61 1343.45,443.83
             1343.45,443.83 1343.45,440.70 1343.45,440.70
             1342.77,437.25 1341.04,435.86 1338.27,436.55
             1323.71,439.32 1308.82,442.44 1293.58,445.91
             1288.73,446.59 1285.27,446.94 1283.19,446.94
             1277.64,444.17 1273.49,441.40 1270.72,438.62
             1267.26,435.17 1268.30,433.78 1273.84,434.47
             1300.16,431.01 1320.25,427.90 1334.11,425.12
             1350.73,423.04 1378.44,417.84 1417.23,409.53
             1420.69,408.15 1423.46,407.45 1425.55,407.45
             1434.55,412.31 1440.78,416.46 1444.25,419.92 Z" />
</svg>
