<?xml version="1.0" encoding="UTF-8" standalone="no"?>
<!DOCTYPE svg PUBLIC "-//W3C//DTD SVG 20010904//EN"
              "http://www.w3.org/TR/2001/REC-SVG-20010904/DTD/svg10.dtd">

<svg xmlns="http://www.w3.org/2000/svg"
     width="6.4in" height="3.6in"
     viewBox="0 0 1920 1080">
     <defs>
         <linearGradient id="g2" gradientUnits="objectBoundingBox">
             <stop offset="0" stop-color="black"/>
             <stop offset="1" stop-color="red"/>
         </linearGradient>
    </defs>
  <path id="svg2"
        fill="url(#g2)" stroke="black" stroke-width="1"
        d="M 841.92,405.27
           C 844.00,423.96 846.08,440.24 848.16,454.09
             853.70,452.71 858.20,449.94 861.67,445.78
             862.36,444.40 864.09,443.36 866.86,442.67
             877.94,444.06 885.91,446.48 890.77,449.94
             894.92,454.09 894.23,457.56 888.69,460.33
             879.68,461.71 866.86,463.45 850.23,465.53
             855.77,493.24 862.70,516.10 871.02,534.11
             873.79,524.41 875.52,516.45 876.22,510.20
             876.91,506.05 877.25,501.20 877.25,495.66
             873.09,490.81 873.44,488.73 878.30,489.42
             883.14,490.12 887.64,491.86 891.80,494.62
             897.34,501.55 899.41,506.05 898.03,508.12
             892.49,526.84 886.25,542.77 879.33,555.92
             889.02,573.93 896.30,585.37 901.16,590.22
             907.38,597.84 913.62,600.95 919.86,599.56
             922.63,595.41 927.13,586.40 933.36,572.55
             936.13,570.48 936.82,571.52 935.44,575.67
             934.05,585.37 933.02,595.07 932.33,604.77
             932.33,610.31 931.98,615.50 931.28,620.36
             932.66,628.67 931.97,634.91 929.20,639.06
             923.66,639.06 916.04,633.17 906.34,621.39
             895.26,609.61 883.83,592.64 872.06,570.47
             861.66,585.71 849.54,598.53 835.69,608.92
             831.53,611.00 830.49,609.96 832.58,605.80
             845.05,591.26 855.44,573.94 863.75,553.84
             858.89,544.15 854.39,532.72 850.23,519.56
             844.69,503.62 839.50,487.00 834.66,469.69
             834.66,469.69 777.50,483.19 777.50,483.19
             779.58,485.96 780.62,488.39 780.62,490.47
             781.31,493.93 781.31,500.86 780.62,511.25
             791.71,507.78 802.79,503.97 813.88,499.81
             815.95,496.36 818.02,493.93 820.11,492.55
             829.11,493.23 835.34,494.96 838.81,497.73
             840.88,499.82 840.88,501.90 838.81,503.97
             829.11,506.74 819.41,509.51 809.72,512.28
             813.18,515.75 816.29,518.87 819.06,521.64
             818.38,525.10 816.99,533.76 814.91,547.61
             821.83,542.07 828.76,533.76 835.69,522.67
             835.69,521.29 834.99,519.56 833.61,517.48
             833.61,514.71 834.99,513.67 837.77,514.36
             843.30,517.13 846.77,520.95 848.16,525.80
             850.93,530.64 850.58,534.45 847.12,537.22
             836.73,542.76 825.99,548.30 814.91,553.84
             814.91,553.84 810.75,564.23 810.75,564.23
             816.29,565.62 822.52,567.01 829.45,568.39
             834.99,573.93 838.46,579.48 839.84,585.02
             839.84,591.95 836.73,594.37 830.50,592.30
             824.96,587.45 818.03,579.48 809.72,568.39
             800.71,585.02 786.85,599.57 768.16,612.05
             764.00,613.43 762.96,612.73 765.03,609.95
             776.81,600.26 786.51,587.45 794.12,571.52
             800.36,552.81 802.79,535.49 801.41,519.56
             800.02,517.48 798.29,516.44 796.20,516.44
             796.20,516.44 779.58,518.52 779.58,518.52
             778.89,524.06 777.85,529.26 776.47,534.11
             782.70,537.57 786.85,540.34 788.94,542.42
             790.32,548.65 790.32,553.50 788.94,556.97
             786.16,561.81 783.05,561.81 779.58,556.97
             778.19,553.50 776.46,548.65 774.39,542.42
             769.54,558.35 764.34,571.86 758.80,582.94
             753.95,592.64 746.33,603.03 735.94,614.12
             733.16,615.51 732.47,614.47 733.86,611.00
             742.87,597.15 750.14,579.83 755.69,559.05
             761.91,534.11 763.99,510.21 761.92,487.34
             760.54,484.57 758.11,481.80 754.64,479.03
             752.57,476.26 754.30,474.53 759.84,473.84
             763.30,473.84 768.49,473.50 775.42,472.80
             775.42,472.80 832.58,458.25 832.58,458.25
             828.42,438.17 824.27,421.54 820.11,408.38
             817.34,405.61 814.91,404.22 812.83,404.22
             809.37,401.45 808.68,399.03 810.75,396.95
             814.22,395.57 818.72,394.88 824.27,394.88
             830.49,397.65 836.38,401.11 841.92,405.27 Z
           M 740.09,418.77
           C 744.95,422.92 748.76,428.81 751.53,436.44
             750.14,444.75 745.64,446.83 738.02,442.67
             731.79,437.82 725.21,430.89 718.28,421.89
             716.20,417.04 716.89,414.96 720.36,415.66
             727.29,417.04 733.86,418.08 740.09,418.77 Z
           M 884.53,416.69
           C 890.07,418.07 895.61,423.27 901.16,432.28
             902.54,439.21 900.11,442.32 893.88,441.62
             884.18,437.47 874.83,430.54 865.83,420.84
             862.36,418.07 863.05,416.69 867.91,416.69
             873.45,416.69 878.99,416.69 884.53,416.69 Z
           M 724.52,478.00
           C 729.36,482.84 732.13,488.39 732.83,494.62
             732.83,498.78 730.40,500.86 725.55,500.86
             723.47,500.16 720.01,498.09 715.16,494.62
             708.93,489.77 702.69,483.88 696.45,476.95
             695.77,474.88 696.46,473.84 698.53,473.84
             707.54,475.92 716.20,477.30 724.52,478.00 Z
           M 747.38,520.59
           C 739.75,547.62 729.36,577.40 716.20,609.95
             712.73,612.04 708.92,611.34 704.77,607.88
             695.77,598.88 691.61,591.26 692.30,585.02
             691.61,582.25 692.65,581.21 695.42,581.91
             696.80,583.98 699.23,584.67 702.69,583.98
             714.47,568.75 727.98,547.62 743.22,520.59
             745.99,516.44 747.38,516.44 747.38,520.59 Z" />
</svg>
