<?xml version="1.0" encoding="UTF-8" standalone="no"?>
<!DOCTYPE svg PUBLIC "-//W3C//DTD SVG 20010904//EN"
"http://www.w3.org/TR/2001/REC-SVG-20010904/DTD/svg10.dtd">

<svg xmlns="http://www.w3.org/2000/svg"
  width="6.4in" height="3.6in"
  viewBox="0 0 1920 1080" >
  <defs>
    <linearGradient id="g1" gradientUnits="objectBoundingBox">
      <stop offset="0" stop-color="black"/>
      <stop offset="1" stop-color="red"/>
    </linearGradient>
  </defs>
  <g id = "nuber1">
    <path class="svg"
      fill="none" stroke="black" stroke-width="1"
      d="M 573.39,517.44
      C 576.86,518.82 578.94,521.59 579.62,525.75
      580.32,527.84 579.98,529.57 578.59,530.95
      573.05,540.65 566.82,550.70 559.89,561.08
      568.89,559.01 578.24,556.59 587.94,553.81
      586.55,551.04 585.16,547.58 583.78,543.42
      581.71,539.95 582.40,538.91 585.86,540.30
      593.48,544.45 599.72,548.27 604.56,551.73
      608.03,554.51 609.77,560.74 609.77,570.44
      609.07,575.98 607.68,579.09 605.61,579.78
      602.84,581.17 600.41,580.13 598.33,576.67
      594.87,570.43 592.10,564.54 590.02,559.00
      590.02,559.00 555.73,577.70 555.73,577.70
      553.65,580.48 551.91,581.86 550.53,581.86
      544.99,581.86 539.45,577.36 533.91,568.36
      533.91,568.36 533.91,565.23 533.91,565.23
      533.91,563.85 535.98,563.51 540.14,564.20
      540.14,564.20 550.53,563.16 550.53,563.16
      555.38,551.39 560.23,538.23 565.08,523.67
      565.08,521.60 564.73,519.87 564.05,518.48
      561.96,514.33 563.00,512.95 567.16,514.33
      569.93,515.71 572.00,516.75 573.39,517.44 Z
      M 506.89,406.27
      C 509.66,409.04 511.05,413.89 511.05,420.81
      511.05,420.81 483.00,443.67 483.00,443.67
      483.00,443.67 476.77,447.83 476.77,447.83
      493.39,445.75 517.63,440.90 549.50,433.28
      555.04,431.90 559.89,430.51 564.05,429.12
      568.20,427.04 571.32,426.70 573.39,428.08
      579.63,431.55 584.83,434.67 588.98,437.44
      592.44,439.51 592.44,442.28 588.98,445.75
      586.21,451.98 582.40,462.71 577.55,477.95
      574.77,487.65 571.66,497.01 568.20,506.02
      564.73,512.95 560.92,516.06 556.77,515.36
      553.99,515.36 551.57,513.98 549.50,511.20
      548.80,510.52 547.07,510.17 544.30,510.17
      537.37,510.86 527.67,512.25 515.20,514.33
      526.98,520.56 532.52,526.45 531.83,531.98
      529.05,562.46 527.33,581.17 526.64,588.09
      526.64,594.34 529.75,598.84 535.98,601.61
      555.38,607.15 581.36,607.84 613.92,603.69
      619.46,602.99 623.62,598.84 626.39,591.22
      628.46,584.29 630.54,574.25 632.62,561.08
      633.31,560.39 634.00,560.39 634.70,561.08
      639.55,585.33 643.35,598.84 646.12,601.61
      648.21,603.68 649.94,606.80 651.33,610.95
      652.02,613.73 650.97,616.16 648.20,618.23
      641.97,620.32 629.50,621.70 610.80,622.39
      610.80,622.39 568.20,622.39 568.20,622.39
      530.80,622.39 512.09,612.00 512.09,591.22
      512.09,591.22 512.09,526.80 512.09,526.80
      512.09,520.56 510.36,517.09 506.89,516.41
      502.73,516.41 497.54,517.45 491.31,519.52
      496.85,522.29 500.66,525.06 502.73,527.83
      503.43,529.91 503.78,532.68 503.78,536.14
      503.78,538.91 502.74,541.68 500.66,544.45
      486.80,570.78 459.79,595.37 419.61,618.23
      415.45,619.62 414.76,618.58 417.53,615.12
      459.79,577.02 483.00,546.89 487.16,524.72
      485.07,520.56 484.03,520.56 484.03,524.72
      480.57,526.79 477.80,527.14 475.72,525.75
      470.18,520.91 466.71,515.37 465.33,509.12
      463.25,502.20 459.10,487.31 452.86,464.45
      452.17,462.37 450.44,459.95 447.67,457.17
      444.90,453.02 446.98,451.63 453.91,453.02
      456.68,453.71 459.10,454.41 461.17,455.09
      461.17,455.09 470.53,442.62 470.53,442.62
      470.53,442.62 489.23,413.53 489.23,413.53
      489.23,413.53 490.27,410.42 490.27,410.42
      489.58,409.04 488.54,407.65 487.16,406.27
      487.16,404.18 487.50,402.80 488.19,402.11
      497.88,401.41 504.12,402.80 506.89,406.27 Z
      M 521.44,449.91
      C 521.44,449.91 520.41,468.61 520.41,468.61
      524.56,467.23 527.68,465.84 529.75,464.45
      531.13,463.07 535.98,463.41 544.30,465.48
      548.45,466.87 550.53,468.61 550.53,470.69
      550.53,473.46 548.80,475.19 545.34,475.88
      539.10,476.57 530.79,477.96 520.41,480.03
      520.41,480.03 519.36,506.02 519.36,506.02
      525.60,504.63 532.88,502.90 541.19,500.81
      546.73,499.43 550.19,499.09 551.58,499.78
      551.58,499.78 553.66,491.47 553.66,491.47
      553.66,491.47 563.00,447.83 563.00,447.83
      564.38,442.98 563.35,440.90 559.89,441.59
      559.89,441.59 521.44,449.91 521.44,449.91 Z
      M 463.25,457.17
      C 466.02,459.95 468.10,462.37 469.48,464.45
      469.48,464.45 483.00,513.28 483.00,513.28
      489.93,511.90 497.89,510.17 506.89,508.09
      506.89,508.09 505.86,483.16 505.86,483.16
      501.00,484.54 495.80,485.93 490.27,487.31
      487.49,487.31 484.38,486.96 480.92,486.27
      477.45,484.88 477.45,483.50 480.92,482.11
      485.77,480.73 490.27,479.34 494.42,477.95
      498.58,476.57 502.04,475.18 504.81,473.80
      504.81,464.80 504.47,458.91 503.78,456.14
      503.08,453.37 500.66,452.33 496.50,453.02
      490.27,453.71 485.08,454.41 480.92,455.09
      477.45,455.09 473.64,454.40 469.48,453.02
      469.48,453.02 463.25,457.17 463.25,457.17 Z" />
    </g>
    <g id = "nuber2">
      <path class="svg"
        fill="none"
        stroke="black" stroke-width="1"
        d="M 841.92,405.27
        C 844.00,423.96 846.08,440.24 848.16,454.09
        853.70,452.71 858.20,449.94 861.67,445.78
        862.36,444.40 864.09,443.36 866.86,442.67
        877.94,444.06 885.91,446.48 890.77,449.94
        894.92,454.09 894.23,457.56 888.69,460.33
        879.68,461.71 866.86,463.45 850.23,465.53
        855.77,493.24 862.70,516.10 871.02,534.11
        873.79,524.41 875.52,516.45 876.22,510.20
        876.91,506.05 877.25,501.20 877.25,495.66
        873.09,490.81 873.44,488.73 878.30,489.42
        883.14,490.12 887.64,491.86 891.80,494.62
        897.34,501.55 899.41,506.05 898.03,508.12
        892.49,526.84 886.25,542.77 879.33,555.92
        889.02,573.93 896.30,585.37 901.16,590.22
        907.38,597.84 913.62,600.95 919.86,599.56
        922.63,595.41 927.13,586.40 933.36,572.55
        936.13,570.48 936.82,571.52 935.44,575.67
        934.05,585.37 933.02,595.07 932.33,604.77
        932.33,610.31 931.98,615.50 931.28,620.36
        932.66,628.67 931.97,634.91 929.20,639.06
        923.66,639.06 916.04,633.17 906.34,621.39
        895.26,609.61 883.83,592.64 872.06,570.47
        861.66,585.71 849.54,598.53 835.69,608.92
        831.53,611.00 830.49,609.96 832.58,605.80
        845.05,591.26 855.44,573.94 863.75,553.84
        858.89,544.15 854.39,532.72 850.23,519.56
        844.69,503.62 839.50,487.00 834.66,469.69
        834.66,469.69 777.50,483.19 777.50,483.19
        779.58,485.96 780.62,488.39 780.62,490.47
        781.31,493.93 781.31,500.86 780.62,511.25
        791.71,507.78 802.79,503.97 813.88,499.81
        815.95,496.36 818.02,493.93 820.11,492.55
        829.11,493.23 835.34,494.96 838.81,497.73
        840.88,499.82 840.88,501.90 838.81,503.97
        829.11,506.74 819.41,509.51 809.72,512.28
        813.18,515.75 816.29,518.87 819.06,521.64
        818.38,525.10 816.99,533.76 814.91,547.61
        821.83,542.07 828.76,533.76 835.69,522.67
        835.69,521.29 834.99,519.56 833.61,517.48
        833.61,514.71 834.99,513.67 837.77,514.36
        843.30,517.13 846.77,520.95 848.16,525.80
        850.93,530.64 850.58,534.45 847.12,537.22
        836.73,542.76 825.99,548.30 814.91,553.84
        814.91,553.84 810.75,564.23 810.75,564.23
        816.29,565.62 822.52,567.01 829.45,568.39
        834.99,573.93 838.46,579.48 839.84,585.02
        839.84,591.95 836.73,594.37 830.50,592.30
        824.96,587.45 818.03,579.48 809.72,568.39
        800.71,585.02 786.85,599.57 768.16,612.05
        764.00,613.43 762.96,612.73 765.03,609.95
        776.81,600.26 786.51,587.45 794.12,571.52
        800.36,552.81 802.79,535.49 801.41,519.56
        800.02,517.48 798.29,516.44 796.20,516.44
        796.20,516.44 779.58,518.52 779.58,518.52
        778.89,524.06 777.85,529.26 776.47,534.11
        782.70,537.57 786.85,540.34 788.94,542.42
        790.32,548.65 790.32,553.50 788.94,556.97
        786.16,561.81 783.05,561.81 779.58,556.97
        778.19,553.50 776.46,548.65 774.39,542.42
        769.54,558.35 764.34,571.86 758.80,582.94
        753.95,592.64 746.33,603.03 735.94,614.12
        733.16,615.51 732.47,614.47 733.86,611.00
        742.87,597.15 750.14,579.83 755.69,559.05
        761.91,534.11 763.99,510.21 761.92,487.34
        760.54,484.57 758.11,481.80 754.64,479.03
        752.57,476.26 754.30,474.53 759.84,473.84
        763.30,473.84 768.49,473.50 775.42,472.80
        775.42,472.80 832.58,458.25 832.58,458.25
        828.42,438.17 824.27,421.54 820.11,408.38
        817.34,405.61 814.91,404.22 812.83,404.22
        809.37,401.45 808.68,399.03 810.75,396.95
        814.22,395.57 818.72,394.88 824.27,394.88
        830.49,397.65 836.38,401.11 841.92,405.27 Z
        M 740.09,418.77
        C 744.95,422.92 748.76,428.81 751.53,436.44
        750.14,444.75 745.64,446.83 738.02,442.67
        731.79,437.82 725.21,430.89 718.28,421.89
        716.20,417.04 716.89,414.96 720.36,415.66
        727.29,417.04 733.86,418.08 740.09,418.77 Z
        M 884.53,416.69
        C 890.07,418.07 895.61,423.27 901.16,432.28
        902.54,439.21 900.11,442.32 893.88,441.62
        884.18,437.47 874.83,430.54 865.83,420.84
        862.36,418.07 863.05,416.69 867.91,416.69
        873.45,416.69 878.99,416.69 884.53,416.69 Z
        M 724.52,478.00
        C 729.36,482.84 732.13,488.39 732.83,494.62
        732.83,498.78 730.40,500.86 725.55,500.86
        723.47,500.16 720.01,498.09 715.16,494.62
        708.93,489.77 702.69,483.88 696.45,476.95
        695.77,474.88 696.46,473.84 698.53,473.84
        707.54,475.92 716.20,477.30 724.52,478.00 Z
        M 747.38,520.59
        C 739.75,547.62 729.36,577.40 716.20,609.95
        712.73,612.04 708.92,611.34 704.77,607.88
        695.77,598.88 691.61,591.26 692.30,585.02
        691.61,582.25 692.65,581.21 695.42,581.91
        696.80,583.98 699.23,584.67 702.69,583.98
        714.47,568.75 727.98,547.62 743.22,520.59
        745.99,516.44 747.38,516.44 747.38,520.59 Z" />
      </g>
      <g id = "nuber3">
        <path class="svg"
          fill="none"
          stroke="black" stroke-width="1"
          d="M 1156.70,464.53
          C 1168.47,476.30 1174.36,492.58 1174.36,513.36
          1174.36,529.98 1167.78,545.57 1154.62,560.12
          1143.54,572.59 1127.26,583.68 1105.78,593.38
          1102.32,594.76 1101.29,594.07 1102.67,591.30
          1119.98,577.45 1132.80,564.98 1141.11,553.89
          1150.12,542.11 1154.62,527.21 1154.62,509.20
          1154.62,492.58 1149.43,479.07 1139.03,468.69
          1127.95,457.61 1115.48,452.06 1101.62,452.06
          1093.31,452.06 1087.77,452.41 1085.00,453.09
          1086.38,456.56 1087.08,460.72 1087.08,465.56
          1087.08,471.80 1084.66,480.81 1079.81,492.58
          1074.27,505.75 1068.38,517.87 1062.14,528.95
          1046.90,553.20 1035.82,568.43 1028.89,574.67
          1022.66,580.21 1017.47,582.98 1013.31,582.98
          1005.69,582.98 1000.14,572.94 996.69,552.84
          994.60,541.76 992.87,531.72 991.48,522.72
          991.48,505.40 1002.91,487.73 1025.78,469.72
          1048.63,451.71 1074.96,442.70 1104.75,442.70
          1124.83,442.70 1142.15,449.98 1156.70,464.53 Z
          M 1023.70,487.39
          C 1010.54,500.55 1003.95,515.44 1003.95,532.06
          1003.95,550.77 1008.46,560.12 1017.47,560.12
          1019.54,560.12 1021.62,559.09 1023.70,557.00
          1037.55,543.15 1051.06,524.10 1064.22,499.86
          1073.23,483.23 1077.73,468.34 1077.73,455.17
          1056.25,462.10 1038.24,472.84 1023.70,487.39 Z" />
        </g>
        <g id = "nuber4">
          <path class="svg"
            fill="none"
            stroke="black" stroke-width="1"
            d="M 1444.25,419.92
            C 1447.71,422.01 1448.40,424.43 1446.33,427.20
            1444.94,429.28 1443.55,431.36 1442.17,433.44
            1441.47,438.98 1440.43,446.60 1439.05,456.30
            1431.43,503.40 1424.85,536.65 1419.31,556.05
            1415.16,574.06 1408.92,589.99 1400.61,603.84
            1396.45,610.77 1393.68,612.50 1392.30,609.05
            1384.67,599.34 1378.44,593.10 1373.59,590.33
            1365.28,584.10 1355.23,577.52 1343.45,570.59
            1341.38,568.51 1341.73,567.47 1344.50,567.47
            1355.58,570.24 1365.28,572.67 1373.59,574.75
            1376.36,575.44 1379.83,575.78 1383.98,575.78
            1392.30,573.01 1400.26,553.27 1407.88,516.56
            1414.11,481.23 1418.62,450.75 1421.39,425.12
            1420.69,423.04 1418.61,421.66 1415.16,420.97
            1390.91,425.12 1369.77,428.93 1351.77,432.39
            1362.85,442.09 1367.00,448.67 1364.23,452.14
            1364.23,454.21 1358.35,469.45 1346.58,497.86
            1352.80,502.02 1357.66,505.82 1361.12,509.28
            1365.28,514.14 1367.70,517.95 1368.39,520.72
            1367.70,527.65 1363.55,529.38 1355.92,525.91
            1348.99,523.14 1343.11,520.37 1338.27,517.59
            1327.87,538.38 1314.36,556.39 1297.73,571.62
            1283.88,585.48 1267.95,597.95 1249.94,609.05
            1247.86,609.73 1247.17,608.69 1247.86,605.92
            1279.72,578.21 1304.66,545.66 1322.67,508.25
            1313.67,502.71 1305.02,494.74 1296.70,484.34
            1296.00,482.27 1296.70,481.58 1298.78,482.27
            1311.94,487.81 1321.98,491.27 1328.91,492.66
            1334.45,480.89 1339.30,464.61 1343.45,443.83
            1343.45,443.83 1343.45,440.70 1343.45,440.70
            1342.77,437.25 1341.04,435.86 1338.27,436.55
            1323.71,439.32 1308.82,442.44 1293.58,445.91
            1288.73,446.59 1285.27,446.94 1283.19,446.94
            1277.64,444.17 1273.49,441.40 1270.72,438.62
            1267.26,435.17 1268.30,433.78 1273.84,434.47
            1300.16,431.01 1320.25,427.90 1334.11,425.12
            1350.73,423.04 1378.44,417.84 1417.23,409.53
            1420.69,408.15 1423.46,407.45 1425.55,407.45
            1434.55,412.31 1440.78,416.46 1444.25,419.92 Z" />
          </g>
        </svg>
